<?xml version="1.0" encoding="utf-8"?>
<!-- Generator: Adobe Illustrator 16.0.0, SVG Export Plug-In . SVG Version: 6.00 Build 0)  -->
<!DOCTYPE svg PUBLIC "-//W3C//DTD SVG 1.1//EN" "http://www.w3.org/Graphics/SVG/1.1/DTD/svg11.dtd">
<svg version="1.1" id="Layer_1" xmlns="http://www.w3.org/2000/svg" xmlns:xlink="http://www.w3.org/1999/xlink" x="0px" y="0px"
	 width="48px" height="48px" viewBox="0 0 48 48" enable-background="new 0 0 48 48" xml:space="preserve">
<rect x="31.712" y="19.046" transform="matrix(-0.7073 0.7069 -0.7069 -0.7073 69.9681 9.8549)" fill="#FFFFFF" width="2.463" height="0.733"/>
<polygon fill="#FFFFFF" points="26.334,15.635 26.336,15.636 26.334,15.634 "/>
<polygon fill="#FFFFFF" points="37.887,14.992 32.437,9.54 32.537,9.439 29.495,12.479 34.946,17.931 "/>
<rect x="30.318" y="17.653" transform="matrix(0.7069 -0.7073 0.7073 0.7069 -3.4982 27.5966)" fill="#FFFFFF" width="2.463" height="0.732"/>
<rect x="27.533" y="14.867" transform="matrix(0.7068 -0.7074 0.7074 0.7068 -2.3421 24.8139)" fill="#FFFFFF" width="2.462" height="0.732"/>
<rect x="28.926" y="16.261" transform="matrix(0.7069 -0.7073 0.7073 0.7069 -2.9205 26.2036)" fill="#FFFFFF" width="2.463" height="0.729"/>
<polygon fill="#4A4A49" points="28.516,13.458 29.495,12.479 29.495,12.479 28.516,13.458 28.514,13.457 26.334,15.634 
	26.334,15.634 28.514,13.458 "/>
<rect x="13.783" y="27.437" transform="matrix(0.7071 -0.7071 0.7071 0.7071 -15.1448 18.3113)" fill="#4A4A49" width="1.496" height="0"/>
<polygon fill="#4A4A49" points="39.194,15.427 39.194,15.427 32.872,9.104 32.537,9.439 32.872,9.104 "/>
<path fill="#4A4A49" d="M15.786,29.004c0.301,0,0.404,0.005,0.542,0.144c0.138,0.14,0.145,0.241,0.145,0.542
	c0,0.362,0,0.911,0.508,1.418c0.509,0.507,1.057,0.507,1.418,0.51h0.06c0.258,0,0.354,0.015,0.485,0.146
	c0.14,0.139,0.142,0.242,0.129,0.542c-0.012,0.232-0.014,0.546,0.119,0.862l-5.975,2.224l-1.472-1.474l-0.477,1.279l0.674,0.671
	l-1.074,0.401l-0.555,1.491l0.392-0.108l9.998-3.725l2.38-2.382l-0.001-0.003l10.016-10.016l0.002,0.001l2.178-2.178l-0.003-0.001
	l3.92-3.921l-6.322-6.322l-0.335,0.335L32.437,9.54l5.45,5.452l-2.94,2.939l-5.451-5.452l-0.979,0.979l-0.002,0l-2.18,2.177
	l0.002,0.001l-0.326,0.327l5.453,5.453l-9.252,9.257l-0.004-0.005l-1.901,1.902c-0.002-0.05-0.002-0.113,0.002-0.211
	c0.017-0.374,0.042-0.939-0.492-1.472c-0.509-0.511-1.056-0.511-1.418-0.511c-0.301,0-0.403-0.006-0.543-0.143
	c-0.137-0.141-0.143-0.241-0.143-0.543c0-0.364,0-0.911-0.509-1.418c-0.507-0.508-1.054-0.508-1.417-0.511h-0.063
	c-0.255,0-0.351-0.015-0.481-0.143c-0.13-0.135-0.147-0.236-0.168-0.538l-0.014-0.172l-1.058,1.057
	c0.076,0.172,0.19,0.354,0.365,0.529C14.875,29.004,15.424,29.004,15.786,29.004z M34.074,18.801l-1.742,1.741l-0.518-0.518
	l1.741-1.741L34.074,18.801z M27.636,15.844l1.74-1.742l0.52,0.518l-1.743,1.742L27.636,15.844z M29.029,17.239l1.741-1.742
	l0.517,0.518l-1.742,1.74L29.029,17.239z M30.938,19.149l-0.517-0.518l1.741-1.742l0.519,0.518L30.938,19.149z"/>
<g>
	<path fill="#FFFFFF" d="M24.904,21.168c0.077-0.146,0.025-0.269-0.061-0.354l-0.185-0.076l-0.106,0.023
		c-0.108,0.044-0.269,0.204-0.389,0.33l-0.435,0.433l0.435,0.434l0.542-0.542C24.813,21.304,24.868,21.238,24.904,21.168z"/>
	<path fill="#FFFFFF" d="M25.693,21.681l-0.135,0.033c-0.09,0.04-0.199,0.13-0.312,0.24l-0.544,0.545l0.542,0.542l0.541-0.542
		c0.116-0.113,0.188-0.209,0.229-0.3c0.05-0.116,0.054-0.274-0.088-0.409L25.693,21.681z"/>
	<path fill="#FFFFFF" d="M26.01,15.962L15.124,26.851L15.12,26.85l-0.06,0.06l0.014,0.172c0.021,0.302,0.038,0.403,0.168,0.538
		c0.13,0.128,0.226,0.143,0.481,0.143h0.063c0.363,0.003,0.91,0.003,1.417,0.511c0.509,0.507,0.509,1.054,0.509,1.418
		c0,0.302,0.006,0.402,0.143,0.543c0.14,0.137,0.242,0.143,0.543,0.143c0.363,0,0.909,0,1.418,0.511
		c0.534,0.532,0.508,1.098,0.492,1.472c-0.004,0.098-0.004,0.161-0.002,0.211l1.901-1.902l0.004,0.005l9.252-9.257L26.01,15.962z
		 M23.516,25.878l-1.089-1.088l-0.871,0.871l1.09,1.091l-0.652,0.651l-2.601-2.599l0.652-0.653l0.968,0.968l0.87-0.872l-0.979-0.981
		l0.652-0.652l2.614,2.613L23.516,25.878z M26.399,22.948l-1.265,1.286l-2.598-2.601l1.358-1.357
		c0.28-0.269,0.555-0.402,0.824-0.402l0.125,0.01c0.19,0.028,0.359,0.122,0.514,0.272c0.158,0.161,0.244,0.326,0.26,0.504
		c0.012,0.097-0.006,0.213-0.049,0.346c0.127-0.06,0.251-0.09,0.372-0.09l0.153,0.016c0.172,0.04,0.336,0.131,0.482,0.279
		c0.154,0.152,0.25,0.331,0.293,0.528c0.035,0.129,0.042,0.257,0.021,0.386c-0.016,0.146-0.073,0.288-0.159,0.423
		C26.64,22.683,26.53,22.817,26.399,22.948z"/>
	<polygon fill="#4A4A49" points="20.904,23.266 21.883,24.247 21.013,25.118 20.044,24.15 19.392,24.803 21.993,27.402 
		22.645,26.751 21.555,25.66 22.426,24.79 23.516,25.878 24.17,25.227 21.556,22.613 	"/>
	<path fill="#4A4A49" d="M26.869,21.739c-0.043-0.198-0.139-0.376-0.293-0.528c-0.146-0.147-0.311-0.239-0.482-0.279l-0.153-0.016
		c-0.121,0-0.245,0.03-0.372,0.09c0.043-0.133,0.061-0.249,0.049-0.346c-0.016-0.178-0.102-0.343-0.26-0.504
		c-0.155-0.15-0.324-0.245-0.514-0.272l-0.125-0.01c-0.269,0-0.543,0.133-0.824,0.402l-1.358,1.357l2.598,2.601l1.265-1.286
		c0.131-0.131,0.24-0.266,0.331-0.4c0.086-0.135,0.144-0.277,0.159-0.423C26.911,21.997,26.904,21.869,26.869,21.739z
		 M23.728,21.524l0.435-0.433c0.121-0.126,0.281-0.286,0.389-0.33l0.106-0.023l0.185,0.076c0.085,0.085,0.137,0.207,0.061,0.354
		c-0.036,0.07-0.091,0.136-0.2,0.248l-0.542,0.542L23.728,21.524z M26.014,22.2c-0.04,0.091-0.112,0.187-0.229,0.3l-0.541,0.542
		l-0.542-0.542l0.544-0.545c0.112-0.109,0.222-0.2,0.312-0.24l0.135-0.033l0.232,0.11C26.067,21.925,26.063,22.084,26.014,22.2z"/>
</g>
<path fill="#474100" d="M26.759,14.968l-0.518-0.517l1.741-1.743l0.517,0.519L26.759,14.968 M31.789,7.154l-4.355,4.354
	l-0.001-0.002l-2.176,2.178v0.002L14.045,24.9l-0.003-0.002l-1.186,1.183L9.127,36.095l-0.6,2.16l1.786-0.495l0.555-1.492
	l-0.563,0.21l0.611-1.635l0.352,0.354l0.477-1.279l-0.353-0.352l2.434-6.539l0.013,0.146c0.017,0.226,0.037,0.505,0.163,0.796
	l1.058-1.059c-0.027-0.282-0.087-0.614-0.305-0.977l0.161-0.159l-0.003-0.003l10.452-10.453l0.645,0.645l0.326-0.327l-0.002-0.001
	l2.18-2.177l0.002,0l0.979-0.979l-0.646-0.644l2.938-2.939l0.648,0.646l0.436-0.437l6.322,6.322l0.434-0.434L31.789,7.154"/>
<path fill="#FFFFFF" d="M11.745,33.918L11.745,33.918l1.472,1.473l5.975-2.224c-0.133-0.316-0.131-0.63-0.119-0.862
	c0.012-0.3,0.01-0.403-0.129-0.542c-0.13-0.131-0.227-0.146-0.485-0.146h-0.06c-0.362-0.003-0.909-0.003-1.418-0.51
	c-0.508-0.507-0.508-1.056-0.508-1.418c0-0.301-0.007-0.402-0.145-0.542c-0.138-0.139-0.241-0.144-0.542-0.144
	c-0.362,0-0.911,0-1.418-0.509c-0.175-0.175-0.289-0.357-0.365-0.529l-0.064,0.064L11.745,33.918L11.745,33.918z"/>
<polygon fill="#FFFFFF" points="40.709,16.942 39.194,15.427 35.274,19.348 35.277,19.35 33.1,21.527 33.098,21.526 23.082,31.542 
	23.083,31.545 20.704,33.927 10.706,37.651 10.313,37.76 10.207,38.044 9.609,40.204 11.784,39.604 21.782,35.878 24.166,33.496 
	24.163,33.494 34.178,23.477 34.179,23.478 36.357,21.3 36.355,21.3 "/>
<polygon fill="#FFFFFF" points="11.817,35.741 11.269,35.196 11.269,35.194 11.269,35.194 10.869,36.268 11.942,35.866 "/>
<g>
	<path fill="#EFDB00" d="M14.913,25.771l0.003,0.003l-0.161,0.159c0.218,0.362,0.278,0.693,0.305,0.976v0.001l0.06-0.06l0.003,0.001
		L26.01,15.962l-0.645-0.645L14.913,25.771z"/>
	<path fill="#EFDB00" d="M13.827,27.026l-2.434,6.539l0.353,0.352l2.193-5.887l0.064-0.064c-0.126-0.29-0.146-0.568-0.163-0.794
		L13.827,27.026z"/>
	<polygon fill="#EFDB00" points="10.917,34.843 10.306,36.478 10.414,36.438 10.869,36.268 10.869,36.268 11.269,35.196 
		11.268,35.196 	"/>
	<path fill="#EFDB00" d="M23.979,0C10.734,0,0,10.734,0,23.977C0,37.22,10.734,47.953,23.979,47.953
		c13.24,0,23.976-10.733,23.976-23.977C47.954,10.734,37.219,0,23.979,0z M36.357,21.3l-2.179,2.178l-0.001-0.001L24.163,33.494
		l0.003,0.002l-2.384,2.382l-9.998,3.726l-2.175,0.601l0.598-2.16l0.106-0.284l-1.786,0.495l0.6-2.16l3.729-10.014l1.186-1.183
		l0.003,0.002l11.211-11.213v-0.002l2.176-2.178l0.001,0.002l4.355-4.354l7.839,7.839l-0.434,0.434l1.515,1.515L36.355,21.3H36.357z
		"/>
	
		<rect x="30.187" y="8.609" transform="matrix(-0.7079 -0.7063 0.7063 -0.7079 44.786 39.8966)" fill="#EFDB00" width="0.912" height="4.157"/>
	
		<rect x="27.004" y="12.608" transform="matrix(-0.7074 -0.7068 0.7068 -0.7074 36.9521 42.9731)" fill="#EFDB00" width="0.732" height="2.462"/>
</g>
</svg>
